<svg width="938" height="305" xmlns="http://www.w3.org/2000/svg"><defs><linearGradient x1="50%" y1="118.8%" x2="50%" y2="18.7%" id="a"><stop stop-color="#F1F3F4" offset="0%"/><stop stop-color="#E3E6E8" offset="15%"/><stop stop-color="#CED1D5" offset="44%"/><stop stop-color="#C1C5CA" offset="73%"/><stop stop-color="#BDC1C6" offset="100%"/></linearGradient><linearGradient x1="50%" y1="115.4%" x2="50%" y2="15.3%" id="b"><stop stop-color="#F1F3F4" offset="0%"/><stop stop-color="#E3E6E8" offset="12%"/><stop stop-color="#CED1D5" offset="36%"/><stop stop-color="#C1C5CA" offset="59%"/><stop stop-color="#BDC1C6" offset="81%"/><stop stop-color="#DADCE0" offset="100%"/></linearGradient><linearGradient x1="64393%" y1="18694%" x2="64393%" y2="5819%" id="c"><stop stop-color="#F1F3F4" offset="0%"/><stop stop-color="#E3E6E8" offset="12%"/><stop stop-color="#CED1D5" offset="36%"/><stop stop-color="#C1C5CA" offset="59%"/><stop stop-color="#BDC1C6" offset="81%"/><stop stop-color="#DADCE0" offset="100%"/></linearGradient><linearGradient x1="50%" y1="83%" x2="50%" y2="-17%" id="d"><stop stop-color="#BDC1C6" offset="0%"/><stop stop-color="#8C9499" offset="100%"/></linearGradient><linearGradient x1="72620%" y1="17921%" x2="72620%" y2="11715%" id="e"><stop stop-color="#BDC1C6" offset="0%"/><stop stop-color="#8C9499" offset="100%"/></linearGradient><linearGradient x1="17335%" y1="16373%" x2="17335%" y2="11434%" id="f"><stop stop-color="#BDC1C6" offset="0%"/><stop stop-color="#8C9499" offset="100%"/></linearGradient><linearGradient x1="32.2%" y1="76.5%" x2="103.6%" y2="-35.5%" id="g"><stop stop-color="#BDC1C6" offset="0%"/><stop stop-color="#C1C5C9" offset="5%"/><stop stop-color="#DBDEE1" offset="41%"/><stop stop-color="#EBEEEF" offset="74%"/><stop stop-color="#F1F3F4" offset="100%"/></linearGradient><linearGradient x1="50%" y1="100%" x2="50%" y2="0%" id="h"><stop stop-color="#F8F9FA" stop-opacity="0" offset="0%"/><stop stop-color="#F8F9FA" stop-opacity=".2" offset="15%"/><stop stop-color="#F8F9FA" stop-opacity=".5" offset="32%"/><stop stop-color="#F8F9FA" stop-opacity=".7" offset="48%"/><stop stop-color="#F8F9FA" stop-opacity=".8" offset="64%"/><stop stop-color="#F8F9FA" stop-opacity=".9" offset="78%"/><stop stop-color="#F8F9FA" offset="90%"/><stop stop-color="#F8F9FA" offset="100%"/></linearGradient><linearGradient x1="7696%" y1="14818%" x2="9456%" y2="14818%" id="i"><stop stop-color="#F8F9FA" stop-opacity="0" offset="0%"/><stop stop-color="#F8F9FA" stop-opacity=".2" offset="15%"/><stop stop-color="#F8F9FA" stop-opacity=".5" offset="32%"/><stop stop-color="#F8F9FA" stop-opacity=".7" offset="48%"/><stop stop-color="#F8F9FA" stop-opacity=".8" offset="64%"/><stop stop-color="#F8F9FA" stop-opacity=".9" offset="78%"/><stop stop-color="#F8F9FA" offset="90%"/><stop stop-color="#F8F9FA" offset="100%"/></linearGradient><linearGradient x1="12889%" y1="14665%" x2="12889%" y2="14506%" id="j"><stop stop-color="#F8F9FA" stop-opacity="0" offset="0%"/><stop stop-color="#F8F9FA" stop-opacity=".2" offset="15%"/><stop stop-color="#F8F9FA" stop-opacity=".5" offset="32%"/><stop stop-color="#F8F9FA" stop-opacity=".7" offset="48%"/><stop stop-color="#F8F9FA" stop-opacity=".8" offset="64%"/><stop stop-color="#F8F9FA" stop-opacity=".9" offset="78%"/><stop stop-color="#F8F9FA" offset="90%"/><stop stop-color="#F8F9FA" offset="100%"/></linearGradient><linearGradient x1="14494%" y1="14665%" x2="14494%" y2="14506%" id="k"><stop stop-color="#F8F9FA" stop-opacity="0" offset="0%"/><stop stop-color="#F8F9FA" stop-opacity=".2" offset="15%"/><stop stop-color="#F8F9FA" stop-opacity=".5" offset="32%"/><stop stop-color="#F8F9FA" stop-opacity=".7" offset="48%"/><stop stop-color="#F8F9FA" stop-opacity=".8" offset="64%"/><stop stop-color="#F8F9FA" stop-opacity=".9" offset="78%"/><stop stop-color="#F8F9FA" offset="90%"/><stop stop-color="#F8F9FA" offset="100%"/></linearGradient><linearGradient x1="66.1%" y1="86.6%" x2="37.5%" y2="29.4%" id="l"><stop stop-color="#FFF" stop-opacity="0" offset="0%"/><stop stop-color="#FFF" stop-opacity=".1" offset="9%"/><stop stop-color="#FFF" stop-opacity=".2" offset="26%"/><stop stop-color="#FFF" stop-opacity=".4" offset="50%"/><stop stop-color="#FFF" stop-opacity=".7" offset="78%"/><stop stop-color="#FFF" offset="100%"/></linearGradient><linearGradient x1="0%" y1="32%" y2="32%" id="m"><stop stop-color="#F1F3F4" stop-opacity="0" offset="0%"/><stop stop-color="#F1F3F4" stop-opacity=".3" offset="22%"/><stop stop-color="#F1F3F4" stop-opacity=".6" offset="50%"/><stop stop-color="#F1F3F4" stop-opacity=".8" offset="73%"/><stop stop-color="#F1F3F4" stop-opacity=".9" offset="91%"/><stop stop-color="#F1F3F4" offset="100%"/></linearGradient><radialGradient cx="49.8%" fx="49.8%" fy="50%" r="331.5%" gradientTransform="matrix(.09133 0 0 1 .5 0)" id="n"><stop stop-color="#BDC1C6" offset="0%"/><stop stop-color="#9DA5AB" offset="100%"/></radialGradient><linearGradient x1="75681%" y1="2946.9%" x2="73409%" y2="2136.7%" id="o"><stop stop-color="#BDC1C6" offset="0%"/><stop stop-color="#C1C5C9" offset="5%"/><stop stop-color="#DBDEE1" offset="41%"/><stop stop-color="#EBEEEF" offset="74%"/><stop stop-color="#F1F3F4" offset="100%"/></linearGradient><linearGradient x1="74708%" y1="6186.4%" x2="72747%" y2="5117.1%" id="p"><stop stop-color="#BDC1C6" offset="0%"/><stop stop-color="#C1C5C9" offset="5%"/><stop stop-color="#DBDEE1" offset="41%"/><stop stop-color="#EBEEEF" offset="74%"/><stop stop-color="#F1F3F4" offset="100%"/></linearGradient></defs><g fill="none"><g opacity=".2"><path fill="#80868B" opacity=".5" d="M437 171h-55v-65h55z"/><g opacity=".6" fill="#E8EAED"><path d="M749.7 82.7c-9.6 0-17.3 5.6-17.3 12.6v1.5h-44.3c0-8-13.1-14.5-29.1-14.5h-20V90l-49.7 7.5v-9.1c0-3.6-4-6.5-8.9-6.5h-8L550 93H385.8V82.2c0-3.1-5.6-5.7-12.3-5.7h-28.3c-6.8 0-12.3 2.6-12.3 5.7V92h-60.8c-1.5 0-2.8 1-2.8 2.1v5.4H241v-5.9h-40c-2.8 0-5.1 1.7-5.1 3.7v21l-10.8.7c-20.6.8-36.4 8.7-36.4 18.3v29.5h636.7V82.6l-35.6.1z"/><path d="M812 136.6l-42.8-4.2v48h52.5v-38.1c0-2.8-4-5.2-9.7-5.7z"/></g><path d="M738 142H605v-35c0-2.8 3-5 6.5-5H690l15.7 5.3H738V142zm-405.3-38.8V101c0-1.6-1.7-2.9-3.8-2.9h-43v4.8H247v55.5l129 .7v-55.8h-43.3zM213.6 105h-21.1c-8.7 1.3-15 7-15 13.8v11.8l-6.5 2.8V154h61v-49h-18.4z" fill="#E8EAED"/><path d="M272 100.6h-6.2c0-5.9-8.2-10.6-18.3-10.6-10.1 0-18.3 4.7-18.3 10.6H223v9h4.2V138h40.6v-28.3h4.2v-9.1z" fill="#BDC1C6"/><path d="M293.4 145.5V136l-106-26-53.4 26h17.4v11.3h-6.9v4.4H134v5.9h101.2l8.5 8.4h41.2l4.8-8.4H313v-5l-19.6-7.1zm-125.2 1.8h-8.4v-9.6a2 2 0 0 1 2.3-1.8h3.8a2 2 0 0 1 2.3 1.8v9.6zm17.6 0h-8.4v-9.6a2 2 0 0 1 2.2-1.8h3.9a2 2 0 0 1 2.3 1.8v9.6z" fill="url(#a)" transform="translate(18)"/><path d="M617.8 127v-9.6h-8V99l-47.3-9.8V72.5L546 69.4l-16.5 3.1V91l-18.9-.3V43.2l-37-5.4V4.6L449.4 0l-24 4.4v33.7L402 41.4v26h-9.5V41.2c0-1.8-2.2-3.1-4.2-2.4L365 47v20.6c-3.2.7-5.6 3-5.6 5.8v6.8l-36.6 8.3v34l-16.8 5V157h329v-26.7l-17.2-3.4z" fill="url(#b)" transform="translate(18)"/><path d="M776 117.3c0-3-5.7-5.5-12.6-5.5h-1.8V98.6c0-3.1-5.7-5.6-12.6-5.6h-5.2V68.5l-25-4.5-23.8 3v24.8l-14.7 4.3-2.8 11-26.6 1.2v-9.7l-11.4-2-11.5 2V162h148v-44.7z" fill="url(#c)" transform="translate(18)"/><path d="M859.7 192.6c-.1-10.7-6.2-21-16.7-28.2a48 48 0 0 0-25.7-6.4H684l-1.9-6.8h-15l-1-.4a12.4 12.4 0 0 0-8.8-.2l-8.2 3h-5.6a4 4 0 0 0-4.2 3.5v.8H627v-4c-.1-1.2-1-2.2-2.3-2.4l-11.8-2.5-11.6 1.3.6 7.6H125.3a47.4 47.4 0 0 0-25.6 6.4l-.5.3a35.5 35.5 0 0 0-16.8 28.2L82 214h778l-.3-21.4z" fill="#BDC1C6"/><path d="M746 186l-39.8-21.1c1.1-2.2.8-5-.8-6.9 0 0 3.8-6.8-3.8-11-7.6-4.4-15 .3-15 .3s-8.5-7.4-18-2.8c-9.5 4.6-5 14.3-5 14.3-12.8 8.3-10.4 27.2-10.4 27.2H746z" fill="url(#d)" transform="translate(18)"/><path fill="url(#e)" d="M851 194.7l-65.8-28v-10.9h3.4v-9.5h-5.5V142l-8.7-.2L767 128h-12.4l-7.4 13.8-8.7.2v4.3H733v9.5h3.4v15.8l31.3 24.4z" transform="translate(18)"/><path fill="#BDC1C6" d="M765 156h26v5h-26zm0 8h26v5h-26z"/><path d="M186.8 160v-1.7c0-1.5 2.5-2.7 5.5-2.7h8v-6.8l24-10.8 22.5 10.8v4.3h15.7c2 0 3.5.8 3.5 1.7V192H111l75.8-32z" fill="url(#f)" transform="translate(18)"/><path d="M119 135.3c-1.5-3-6.1-5.3-11.5-5.3-2.8 0-5.5.6-8 2l-1.6-.2c-3.6 0-6.6 1.9-6.6 4.2 0 .5.2 1 .4 1.4-4 1.2-6.7 3.7-6.7 6.6 0 4 5.2 7.3 11.6 7.3a17 17 0 0 0 5.5-1v8.7h7.3v-5.1l2.6.1c9.4 0 17-4.4 17-9.8 0-4-4.1-7.4-10-9z" fill="url(#g)" transform="translate(18)"/><path fill="#FFF" opacity=".3" d="M421 67.3L288.7 191H162L411.5 59v8.3zm108 22.8L670.1 214H787L548 82v8.4z"/><path fill="#F8F9FA" d="M184.4 148.6l1.6-.6h-8.4l-1.6.6zm-10.1 5.1l1.7-.7h-8.3l-1.7.7z"/><path fill="url(#h)" d="M125.1 159l2.9-1h-18.1l-2.9 1z" transform="translate(18)"/><path fill="#C5221F" d="M116.1 159h-.1z"/><path d="M103 158c-2.4 0-4.8.2-7.2.6-4.3.7-8.2 2.5-11.4 5l-.4.4c1.9-.2 3.7-.6 5.4-1.4a25.9 25.9 0 0 1 12.9-4.2l.7-.4z" fill="url(#i)" transform="translate(18)"/><path d="M136.5 158c-2 1.1-2 2 .1 2 2.9-.2 5.7-.9 8.4-2h-8.5z" fill="url(#j)" transform="translate(18)"/><path fill="#F8F9FA" d="M167.6 148.6l1.4-.6h-6v.6zm-11.1 5.1l1.5-.7h-6v.7zm45.9-5.1l1.6-.6h-8.4l-1.6.6zM339 160l5-2h-21l-5 2zm-146.7-6.3l1.7-.7h-8.3l-1.7.7z"/><path d="M155.5 158c-2 1.1-2 2 .1 2 2.9-.2 5.7-.9 8.4-2h-8.5z" fill="url(#k)" transform="translate(18)"/><path d="M160 11V1.8c0-.5.2-1 .6-1.1L0 78h29.5L168 11h-8z" opacity=".3" transform="translate(18 137)" fill="url(#l)"/><path fill="url(#m)" d="M253 101.6v-.6h-30z" transform="translate(18)"/><path d="M804 255h-2l3.6 6.8c.9 1.6-4.6 2.9-12.2 2.9h-5.6l6.6 13-26.7 2.3-27.3-1.6-5.6-13.1L718 263l-5.2-5.7-29-.7 1.8 5-12.1 1-12.8-1-5.6-18.5-9.8.8 1.2 4.2h-8.6l2.3 8.2-50 4.5 1.4 7.8-17.8 1.5-18.3-1.5-1.2-8.6-20.5.2 2.2 22.6-41.4 2.7.5 17-27.9 2.4-27.9-2.4.9-17.2-26-1.6 1-12.6h-10.4l-1.3 12.7c-.1 1-2.7 1.6-4.9 1.2l-25.7-4.1 1.6-10c-3.5-.3-6-1.4-5.7-2.7l.5-3.2-39.1-3.8 3.5-15.3-17.1-2.2 2-7.5-14.9 2.3-1.3 4.5-48.6 5.3-3 8.3h4.4l-1.6 4.6H247c-1.1 2.9-10.9 5.3-21.8 5.3-11 0-18.9-2.4-17.6-5.4H201l2-4.5h4.4l1.5-3.4L185 256l-50-12.8h18.2l2.9-5.4H149l1.1-2h-10.9l1.6-2.8h104.5l10.1-3.9h42.2l3.9 3.9h17.8l.4-1.7h331.5v-.3h152.5l12.2 21.4c.8 1.5-4.5 2.8-12 2.8z" fill="#E8EAED" opacity=".8"/><path d="M49 214h848.4c1.5 0 3.3.8 3.4 1.6.5 2 .3 5.5-6.1 8.5-9.8 4.6-23.8 7.7-53.4 7.7-10 0-20-.5-29.5-1.5l.6 3.2c.3 1.7-4 1.7-5.7 0l-4-4.2-3.3-.5c-17.8 9-46.4 14.6-81.3 14.6-4.8 0-9.7-.1-14.5-.3-4 4.4-15 8.4-29.5 8.4a91 91 0 0 1-25.3-3.4c-3 3.5-9.7 4.9-17.6 4.9-2.5 0-5-.3-7.3-.7-12 7.3-23.4 9.2-42.8 8.2a87.4 87.4 0 0 1-26.4-5l-2.4 6.2c-.5 1.1-3.1 1.1-3.8 0l-3.3-5.1-4.2 10.1c-.4 1.1-3 1.1-3.8 0l-5-8c-6.7 4.8-20.9 9.3-49.7 9.3-37.1 0-51.6-11.5-51.6-11.5a39 39 0 0 1-15.8 7.2 87 87 0 0 1-36.6-.3 42.8 42.8 0 0 1-14.6-5.8c-5.3-3.7-4.5-5.3-4.5-5.3s-5.2 2-16.6 3.2c-9.9.9-19.8 1-29.7.3-20-1.3-25-4.8-26-7.1a89 89 0 0 1-21.8 2.6 67 67 0 0 1-20-2.7c-4 1.2-8.2 1.9-12.3 1.9-10.7 0-17.8-4.3-17.8-10a203 203 0 0 1-21.5-5.1c-21 4.6-37 2.2-45.4-3.9-13.4 2.5-27 3.8-40.7 3.8-17 0-31.6-2-42.1-5.6l-9 9.3c-1.8 1.9-6.6 1.9-5.8 0l5.7-13.2h-.2l-7.4 6.7c-2 1.8-6.3 1.8-5.7 0L47 221c.3-.7 1-1.2 1.6-1.4l-3-3.5c-.7-.8 1.3-2.1 3.3-2.1z" fill="#DADCE0"/><path d="M30.3 215h849.4a2 2 0 0 0 1.8-.7c.4-.5.6-1.2.5-1.8-1-3.1-3.9-8.6-12.4-13.2-12.7-7-28.5-11.7-57.2-11.7-9.3 0-18.5.8-27.7 2.2l-1.2-4.6c-.6-2.6-4.9-2.6-5.5 0l-1.6 6.2-3 .7a167.1 167.1 0 0 0-85.1-21.3c-4.6 0-9.2.1-13.7.4a42.8 42.8 0 0 0-30.7-11.8 53.1 53.1 0 0 0-23 4.7c-3.8-5-10.3-6.8-17.7-6.8-2.3 0-4.6.3-6.8 1-12.7-10-23.7-12.7-41.4-11.3a55 55 0 0 0-23.8 6.7l-3-8.3a2 2 0 0 0-3.5 0l-2.5 7-5-13.7a2 2 0 0 0-3.5 0l-3.8 10.6c-6.7-6.3-20-12.3-46.4-12.3-34 0-47.9 15.4-47.9 15.4-1.2-2-7-7.4-14-9.8a56.2 56.2 0 0 0-34 .6c-6.8 2.2-11.3 5-14.2 7.7-5.6 5-5.2 7.3-5.2 7.3s-4.5-2.8-14.9-4.4c-9.2-1.3-18.5-1.4-27.7-.4-19 1.8-24.7 6.5-26.3 9.9-12.7-5-26.8-5-39.5 0a23.9 23.9 0 0 0-10.9-2.6c-10 0-18.4 6-20.7 14-7.8 2-15.5 4.6-23 7.6a46 46 0 0 0-45.8 5.7 121 121 0 0 0-37-5.6c-15.3-.1-30.4 2.7-44.5 8.4l-2.5-13.6c-.5-2.8-5-2.8-5.6 0l-3.5 19.5H46l-2.5-10.1c-.7-2.5-5-2.5-5.6 0l-4.3 17.3a2 2 0 0 0 .6 2.1l-5.6 5.6c-1.3 1.4-.3 3.4 1.7 3.4z" fill="url(#n)" transform="translate(18)"/><path d="M818.8 132.2l-5.8 32.2c0 .6 0 1.3.5 1.8.4.5 1 .8 1.7.8h11.6c.6 0 1.3-.3 1.7-.8.4-.5.6-1.2.5-1.8l-5.8-32.2c0-1.2-1-2.2-2.2-2.2-1.2 0-2.2 1-2.2 2.2z" fill="url(#o)" transform="translate(18)"/><path d="M808.5 148l-3.4 13.7a3 3 0 0 0 .4 2.3c.5.6 1.3 1 2 1h7c.7 0 1.5-.4 2-1s.6-1.5.4-2.3l-3.4-13.7a2.6 2.6 0 0 0-5 0z" fill="url(#p)" transform="translate(18)"/></g><path d="M51 240.9s-36.5 31.8-48.5 25.8c-4.3-2.2 2-6.1 3.7-9.2 1.6-3-1.4-5.2 5.7-9 6.7-3.5 13.6-6.6 20.6-9.3l5-1.2 2 .8 6.8-.3L51 241z" fill="#E8EAED"/><path d="M43.6 212.8s-1.6 0-1.8-.9c0-1 0-2 .2-2.9.2-1.4.1-2.8-.2-4.1-.7-1.6-1-3.4-.7-5.1.2-2.1-.2-5.3 0-5.3 1 .6 1.8 1.3 2.5 2v16.3zm7.7-27.4l-.3-.7c.6-1 1-2 1-3 .2-2-4.7 0-4.7 0s1.5.9-1 4c-2.7 3.2 6 2.3 5-.3z" fill="#BC864B"/><path d="M52 182.5l.3-.3a4 4 0 0 0 1-2.7c-.1-1.3-.3-2.8-.7-3-.6-.3-3-1.4-7 1.2-.5.3-.6.9-.4 1.4l.1.4c-.2.3-.4.7-.4 1 0 .5.4.7.6.7.5 0 .3 1 .3 1s-1.3.9-.7 1.7a.8.8 0 0 0 1.3 0s-1.1 1.3-.6 1.6c.5.2 1.6-.7 2-2 .4-1.2 1.1-1.5 2-1.3.6.2 1.4.3 2.1.3z" fill="#202124"/><path d="M49.1 176.1c1.3-.2 2.6.2 3.6 1 .9.4.7.4 1.3.5 3.8.9 7.5 2.5 7.6 3.6.1 1-1.4 5-4.3 7.1-2.8 2.2-2.4-1.8-.8-3.5.7-.7 1.3-1.4 1.8-2.3-1.1-.7-1.8-1.7-3.2-2.3-2.7-1.1-3.2-.5-5.2-1.3-2-.9-2.8-1.6-.8-2.8zm3.5 53.1l-.1 5.1c0 1.2 0 2.4.2 3.6 0 .7-.4 1.3-1 1.4l-.6.2c-.6.2-1.1 0-1.5-.3l-.3-.3.1-1 1-.5c-.9-2.3-1.2-4.7-.9-7 .6-3.8 3-1.2 3-1.2z" fill="#BC864B"/><path d="M51.9 232.2c-.6 4.9.2 6.2.6 6.5.2-.2.2-.5.2-.8l-.3-3.6.1-4.1c-.4.6-.6 1.3-.6 2z" fill="#E3A85E"/><path d="M51 239.5l.7-.2c.6-.1 1-.7 1-1.4v-.9l-.5 1.5c-.2.4-1.7.7-1.7.7l-.2.3h.8z" fill="#3C4043"/><path d="M49.8 241.4c1.5.1 1.9-1.9.7-2.2-1.4-.4-2.8-.6-4.2-.7-.5.2-1.2 1-.8 1.4.3.5 1.5 1.2 4.3 1.5z" fill="#3C4043"/><path d="M49.7 240.7h.3a1 1 0 0 0 1-1.2 17 17 0 0 1-.5-4.4c.4-2.5.5-5 .4-7.5-.2-1.8-4.6 1.7-3.4 5.2 1.2 3.5 1.5 4.4 1.3 5-.1.6-1.3.8-2 .9-.3 0-.6.3-.6.6s.2.6.5.7l3 .7z" fill="#BC864B"/><path d="M51 239.5a17 17 0 0 1-.5-4.4l.4-4a1 1 0 0 0-.7.8c-.3 1.6-.4 3.2-.3 4.8a19 19 0 0 0 1 3.6c0-.2.2-.5.1-.8z" fill="#E3A85E"/><path d="M58.8 212.5c-3.5-6.4-3.8-5.8-3.8-5.8s-1.2-10.4-1.2-11.7c0-2.7 2.7-4.8 3.8-6.2.2-.3.3-.8.3-1.2l-.6-3a.5.5 0 0 0-.7-.3l-2.6 1.3c-.4.2-1 .2-1.4.1l-1.3-.3h-5.5l-2.5.9a3.6 3.6 0 0 0-2.5 3l-.6 5.1c0 .5.3 1 .7 1.2l2.7.9 1.1 3.8s-2.5 6.5-1.1 12.4c1.4 6 2.2 11 2.2 11a9 9 0 0 0 .5 5.4c.6 1.7 1.1 3.4 1.4 5.1 0 0 6.3-2 7.6-3.8 1.3-1.7 1-2 3.2-2 1.3-.2 2.6-.5 3.8-1 0 0 0-8.5-3.5-14.9z" fill="#C5221F"/><path d="M53.9 194.2c.4-2.3 2.7-4.1 3.7-5.4.2-.3.3-.6.3-1-.7.7-1.7 1.6-2.5 2.1-1.2 1-2.3 3.3-1.5 4.3z" fill="#D93025"/><path d="M34.2 239.6c.5 1.3-.6 1.3-1.2 1.2l-2.7-.6s-.4-1 .4-1.2a6 6 0 0 0 2.1-.3c1-.4 1.4.9 1.4.9z" fill="#3C4043"/><path d="M32.8 239.7a.4.4 0 0 1-.3-.5v-3.5l-.4-5.2 2.6 1-.2 3.6v.3c.2.5.2 1 .1 1.6l-.4 2.6H34c-.3.2-.7.2-1.1 0z" fill="#E3A85E"/><path d="M38.4 237c.5 0 1.3-.2 1.3.6 0 .7 0 1.9-1 1.9s-1.3-.7-1.3-1.5c0-.9.5-1 1-1z" fill="#3C4043"/><path d="M37.8 238.1l-.4-4.4.4-4.6H41l-1.5 4.4c.4.8.4 1.8 0 2.7l-.3 1.9a.7.7 0 0 1-1.5 0z" fill="#E3A85E"/><path d="M34.7 232.5l-2.8-1a.7.7 0 0 1-.4-1l1.5-5.2 9 .7v5.1c0 .4-.3.6-.6.6l-4 .1v-2.3c0-.2-.1-.4-.3-.4a.5.5 0 0 0-.7.2l-1.7 3.2z" fill="#3C4043"/><path d="M43.1 211.4l-.6-.5a.4.4 0 0 0-.6 0l-.5.7c0 .1-.1.3 0 .4l1 4.3 1.2 1.2c.3-1 .4-2 .4-3-.2-1-.7-1-.6-2.1.1-.4 0-.8-.3-1zm-3.8.8l-.7-1.1a.3.3 0 0 1 0-.4c.8-.7 1.2-1.7 1.2-2.8-.3-1.6-5.4-.8-5.4-.8l-.2 2.2c0 .7.5 1.4 1.2 1.6l.4.1-.6 1.8 4.1-.6z" fill="#E3A85E"/><path d="M39.5 209.4l-.7.5c-.4.3-1.7 1-.3 2.1l.4.3.4-.1-.7-1.1a.3.3 0 0 1 0-.4l1-1.3z" fill="#FFC275"/><path d="M39.2 211.5c-.5.3-1 .4-1.5.4l-1-.1h-1.3c-1.5 0-2.8 1-3.3 2.4l-.9 4.7s.7 1.7 2.5.3a7 7 0 0 1-.5 2.5 50 50 0 0 0-1.7 4.6c0 .2 0 .4.2.5a17 17 0 0 0 4.9 1.3c2.4 0 6.2-.3 6-2.6-.3-2.3-1.4-4-1.4-5.5v-1.3l1.4.1s2.1-1 1-2c-1-.7-1.8-3.2-2.2-4.4a1 1 0 0 0-.8-.7l-1.4-.2z" fill="#4285F4"/><path d="M42.6 225.5c-.2-2.2-1.2-4-1.3-5.3-.3.3-.5.7-.4 1.1l1.3 5.5c.3-.4.5-.8.4-1.3zm-7.2-13.7c-1 0-2 .4-2.6 1.2.9-.1 1.8-.4 2.6-.8.3 0 .5-.2.8-.4h-.8z" fill="#D2E3FC" opacity=".5"/><path d="M38.9 205c-1-.2-3.3-.9-4.9 1.2 0 0-1.5 1 2.8 2 4.4 1.1 3.6-.7 3.7-1.2a2 2 0 0 0-1.6-2z" fill="#185ABC"/><path d="M55 206.7s-1.2-10.4-1.2-11.7v-.8l-1.3 1.4c-1.5 2 1.7 7.4 0 11.8-1.4 3.7-.2 19.9.2 24.8a8 8 0 0 0 2.6-1.8c1.3-1.7 1-2 3.2-2 1.3-.2 2.6-.5 3.8-1 0 0 0-8.5-3.5-14.9s-3.8-5.8-3.8-5.8z" fill="#EA4335"/><path d="M56.1 219a.8.8 0 0 0-1.6.3l.8 11.1c1.3-1.7 1-2 3.2-2l.6-.2-3-9.2z" fill="#D93025"/><path d="M40.7 189.3l-.5 5.2c0 .5.2 1 .7 1.1 0-2.1 0-6.8.4-7.2.4-.3 3.7-.3 4.5-3l-2.6.8a3.6 3.6 0 0 0-2.5 3.1zm9.3-2.9c1 .5 3.6.7 4.6 0 .7-.5 2.1-.9 2.7-2a.5.5 0 0 0-.7-.1l-2.6 1.2c-.4.3-1 .3-1.4.2l-1.3-.3h-.8c-.5.4-.8.8-.4 1z" fill="#EA4335"/><path d="M54 177.6c-.6-.1-.4 0-1.3-.5-1-.8-2.3-1.2-3.6-1l-.6.4c1 0 2 .3 2.8.7 1 .7 2.9 1 4.8 1.5a26 26 0 0 1 5.5 2.4c-.2-1.1-3.8-2.6-7.6-3.5z" fill="#E3A85E"/><path d="M40.5 206.9a2 2 0 0 0-1.6-2h-.1c-1-.2-3.3-.8-4.8 1.2 0 0-.8.5.4 1.2a2 2 0 0 0 1.2-1.6c0-.2.1-.3.3-.4 2.4-.5 2.7.1 3.6.7.5.5.9 1.1 1 1.8v-.9z" fill="#4285F4"/><path d="M41.4 212.4a1 1 0 0 0-.8-.7l-1.4-.2c-.3.2-.6.3-1 .3l.3.2c1.4 1.1 2-.1 2.5 1 0 0 .5-.2.4-.6z" fill="#D2E3FC" opacity=".5"/><path d="M97.6 229.2s-15 9-9.2 11.5c5.5 2.3 19.1 1.2 24.1-10.2-10.9-5.5-15-1.3-15-1.3z" fill="#E8EAED"/><path d="M137.4 226c0 1-.6 1.9-1.5 2.3-1.4.5-5.4 0-8.6 1.4-3.2 1.4-3 6.9-15.3 5.3-12.2-1.6 1.3-10.7 1.3-10.7l9.3.8s-.8 1.3 2.4 1.8c2.4.2 4.8 0 7-1l5.4.1z" fill="#E8EAED"/><path d="M126.8 219c-.2 1.4.5 2.8 1.8 3.4 3 1.6 3.3 3.6 3.3 3.6h5.5s-.2-1.3-.9-1.4l-2.2-.6c-.8-.2-1.4-.7-1.8-1.4l-3.1-6.5a2.3 2.3 0 0 0-3.2-1c-1.6.8-3.1 2-4.4 3.2-2.4 2.7-8 7.2-8 7.2s4.8 2.6 8 0c2-1.8 3.7-4 5-6.5zm-4.9-13.6a3.7 3.7 0 0 0-4.8-.6c-2.5 1.8.3 4.7.3 5.4 0 .4 2.2 1.2 2.2 1.2v-.3l2-.5s.9-1.4.3-5.2z" fill="#8D6E63"/><path d="M119.3 211.3l.3.1v-.2l-.3.1zm2.3-5.1c.3 1.5.2 3-.3 4.5h.2s.8-1.3.5-4.5h-.4z" fill="#A48B82"/><path d="M122 205.2s-2.3-2.3-5-.5c-2.3 1.6-.2 4.2.3 5.3.4-.3.8-.6 1-1 .2-.2.2-.6.1-.8-.5-1 0-1.5.4-1.6.4 0 .6.8.6.8h.5v-.9a1 1 0 0 1 1.2-1l.9.2v-.5z" fill="#202124"/><path d="M122 205.2s-2.3-2.3-5-.5l-.1.1c2.6-1.7 4.9.6 4.9.6v.3h.2v-.5z" fill="#3C4043"/><path d="M118.5 218.1c1.7-1.7 1.7-5.5 1.7-5.5l-.5-.8.2-.2-.3-.1-2.2-1.2-.6-.4-.7 1.2a7.5 7.5 0 0 0-3.6 5.2c-.3 2.6.1 8.8 1.4 9.2 1.2.4 5-3.9 5-3.9s-.9-2.9-.4-3.5z" fill="#34A853"/><path d="M118.4 218.5c-.4.3-.6.7-.6 1.2 0 1 .3 2.2.6 2.3 0 0 .3-.1.5-.4-.4-1-.5-2-.5-3z" fill="#CEEAD6" opacity=".5"/><path d="M122.5 217.7l3.4 3.9s-4.4 8.5-12 3.9c0 0 1.5-1.9 8.5-7.8zm-30.2.6h7.6c.9 0 1.6.7 1.6 1.6v7H90.6v-7c0-1 .8-1.6 1.7-1.6z" fill="#5F6368"/><path d="M101.5 226.9H90.6l-5.2 3.9c-.7.5-.5 1 .4 1h7.6c1-.1 2-.4 2.9-1l5.2-4z" fill="#E8EAED"/><path d="M113 228.3h3.8c.5 0 .9.3 1 .8a1 1 0 0 1-1 1h-1.3l-2.6.5a1 1 0 0 1-1-1v-.1c0-.3 0-.6.2-.8l.3-.2c.2-.2.4-.2.7-.2z" fill="#3C4043"/><path d="M105.6 225.6l4-.6c1 0 2.6-.4 3.8-.7a1.8 1.8 0 0 1 1.3 3.4c-.6.5-1.3.8-2 1.1-2.7.8-10.8.7-10.8.7s-1.4-3.5 3.7-3.9z" fill="#174EA6"/><path d="M108.2 226c0-.7.9-.9.9-.9l-3.5.6-1 .1-.2.5s3.9.4 3.8-.3z" fill="#185ABC"/><path d="M108 214.2c1 1.2 1.5 2.7 1.5 4.3 0 1.5.4 3 1.2 4.3l4-.2.6 1c-1.8.8-3.7 1.3-5.6 1.5 0 0-.8-.2-1-.8l-2.3-8 1.6-2.1z" fill="#F9AB00"/><path d="M96.1 226.4c0 2 1.7 3.7 3.7 3.7 3.7.2 6.8-1.4 4.9-4.6-2-3.1-8.9-2-8.6.9z" fill="#185ABC"/><path d="M96.1 226.4c.3-.6 1-1 1.7-.9 1.3.1 4.4.7 6.9 0a4.6 4.6 0 0 1-.2-5c.8 0 1.5-.4 2-1 .6-1.8 1.1-3.5 1.5-5.3 0 0-2.3-2.5-4.6-2.6-2.3-.1-4.2-.2-5.4 4.3-1.2 4.6-.4 4.3-1.2 6.3-.7 2-1 3-.7 4.2z" fill="#4285F4"/><path d="M102.7 213c0-.7-.4-1.2-1-1.4-1 0-1.8.6-2.4 1.4.1.8.9 1.4 1.7 1.3.9.1 1.6-.5 1.7-1.4z" fill="#D2E3FC" opacity=".5"/><path d="M113.2 219.2h-2.8c-.3 0-.6.2-.9.4l-1.7 1.6s-4.3 1.2-6.3.7l.3-2.4c-.2-1-.2-2 0-3 .3-.5 1-2.4.4-3.5-.6-1-2.3-.8-3 .5-.7 1.3-.6 2.2 0 2.7 0 0-1 5 .5 8.1.2.3.5.4.8.4l1.8-.3c2-.2 3.9-.8 5.6-1.7l1.1-.4c.2-.1.5-.2.6-.4l1.3-1.3 1.8-.6.5-.8z" fill="#FBBC04"/><path d="M109.5 219.6l-1.7 1.6s-4 1.1-6.1.7c0 .2 0 .5.7.6 1.8 0 3.5-.2 5.2-.7.9-.4 2.4-1.9 3.2-2h2l.4-.5h-2.8c-.3 0-.6 0-.8.3z" fill="#FFD047"/><path d="M113 218.6h4.3a.3.3 0 0 1 .3.6l-2.6 3.7-.3.1-4.5.2a.3.3 0 0 1-.3-.6l2.7-3.8.3-.2z" fill="#202124"/><path d="M114.3 223.2l1 .5h.4l.2-.1c.4-.7.6-1.4.8-2.1v-.2l-.6-.5a.2.2 0 0 0-.3.1v.1c-.1.1-.1.2 0 .2l.2.4-.7-.4a.2.2 0 0 0-.3 0l-.1.3v.2l.3.4-.7-.2a.2.2 0 0 0-.2.4.2.2 0 0 1 0 .4h-.1a.2.2 0 1 0 0 .5z" fill="#FBBC04"/><path d="M98.8 225.7l3.3-.5c1.2-.4 2.4-.2 3.5.4l4.7 2.9c.5.3 1.1.5 1.8.5 0 0 .8.2.4 1.5-3 .5-6.2.5-9.3.2-4-.5-7.1-2.6-4.4-5z" fill="#185ABC"/><path d="M112.5 230.5c-1 .2-7-.8-7-.8l-2.6-.2a4 4 0 0 0-1 .1l-2.5.5h1.4c.7.3 1.6.5 2.4.6 3.1.3 6.2.2 9.3-.2z" fill="#174EA6"/><path d="M101 229.9l1.5-.2h2.8c.3 0 .5.3.6.5a1.2 1.2 0 0 1-1.2 1.6l-3-.2a.7.7 0 0 1-.7-.7v-1z" fill="#3C4043"/><path d="M110 208.8c-.2.7-.3 1.3-.2 2 0 2.5-.3 5-1 7.3 0 0-2 1.2-2.6-.3-.6-1.5-.6-9.6-.6-9.6s4.2-2.4 4.4.6z" fill="#202124"/><path d="M109.3 209.4v1.4c0 2.5-.2 5-.9 7.5.2 0 .3 0 .5-.2a25.3 25.3 0 0 0 .9-8.6l-.5-.1z" fill="#3C4043"/><path d="M105.9 212.8l1.5.2c.3 0 .6 0 .8-.2.8-.7 1.4-1.6 1.6-2.6l.5-.9c.2-.6.2-1.2 0-1.8a3.1 3.1 0 0 0-4-1.9c-2.3.8-2.4 6.8-.4 7.2z" fill="#FBBC04"/><path d="M110.8 207.9s-.7 1.3-4.5 1.1c0 0-.6 7 1.3 11.6 0 0-2 .8-3 .2-1-.6-1.6-4.5-1.3-8.5a.7.7 0 0 0-1-.7c.8-.6 1.4-1.4 1.7-2.4.4-1.4.6-4.2 3.5-4.3 2.8-.2 3.3 3 3.3 3z" fill="#3C4043"/><path d="M125.8 215.4a2.3 2.3 0 0 1 3.2 1l3.2 6.5c.3.7 1 1.2 1.7 1.4l2.3.5c.4.1.7.8.8 1.1h.4s-.2-1.3-.9-1.4l-2.2-.5c-.8-.2-1.4-.7-1.7-1.4l-3.2-6.5a2.3 2.3 0 0 0-3.2-1 19.4 19.4 0 0 0-.4.3z" fill="#A48B82"/><path d="M117.5 214.4l6.4 1.6c2.2.5 4.4.8 6.7 1 2-.1 2.6.7 2.6.7h.3c.6 0 1-.5 1-1a1.2 1.2 0 0 0-1.3-1.3h-2c-1-.2-2-1.4-4.5-1.4-2.5.1-6.5-2.6-8.2-2.4-1.6.3-2.3 1.4-1 2.8z" fill="#8D6E63"/><path d="M133.2 215.4h-2c-1-.2-2-1.4-4.5-1.4-2.5.1-6.5-2.6-8.1-2.4-.6 0-1 .3-1.5.7l1.1-.4c1.6-.2 5.6 2.5 8.1 2.5 2.5-.1 3.5 1.1 4.6 1.3h2a1.3 1.3 0 0 1 1.3 1.3c0 .2 0 .4-.2.6.4-.2.6-.6.6-1a1.3 1.3 0 0 0-1.4-1.2z" fill="#A48B82"/><path d="M122.1 212.7c-1.4-.6-2.8-1.2-3.6-1-1.6.2-2.6 1.6-1.4 3l4.1 1 1-3z" fill="#34A853"/><path d="M118 211.8a2 2 0 0 0-.9.5c1.6-1 3.5.2 5 .8v-.4c-1.4-.6-2.8-1.3-4.2-1z" fill="#CEEAD6" opacity=".5"/><path d="M107.5 204.9a3 3 0 0 0-2.8 2c.8-.7 1.9-1.1 3-1.2 1.7.1 2.2 2 2.3 2.8.3-.1.6-.3.8-.6 0 0-.5-3.2-3.3-3zm-1.2 4.1a20 20 0 0 0 .6 11.8l.7-.3c-1.8-4.4-1.3-11-1.3-11.5z" fill="#5F6368"/><path d="M99.3 213.2a2 2 0 0 0 1.7 1.2c.5 0 1-.3 1.4-.7l-.2-.7c-.6-1-2-.8-2.9.2z" fill="#FFD047"/><path d="M110.2 228.4l-4.6-2.8c-1-.6-2.3-.8-3.5-.4l-3.2.5c-.2.1 0 .4.6.3l2.1-.3a5 5 0 0 1 3.8.5l3.8 2c.3.2.7.2 1 .2z" fill="#1A73E8"/><path d="M803.5 267.7c.7 2.6-3.2 7.3-3.6 6.8.5.2 5.6 2.3 3.6 3.3-4 1.8-24.5-7.7-25-8.8 0-2.1 6.4.4 7.1.7-3.7-6.5-10.4-8.9-15.9-13.6-2.2-2-4-4.4-6.3-6.4-1.4-1.2-4.3-1-5.4-2 10.5-3.3 15.5 8.1 24.8 12-3.5-4.4-6.2-9.2-11.1-11.8 4.1-2.3 5 .4 7.5 2 4.7 3.2 7.2 8.2 11.8 11.5 2.3 1.7 12.5 4.2 12.5 6.3zm-10.3 7l3.5-9.2-3-1.5c1.3 2 3 3.4 5.1 4.4.4-1.6-.1-2-2-2.9l-3.6 9.2z" fill="#E8EAED"/><path d="M771.5 246h-.3a1.2 1.2 0 0 0-1.2 1.5l.2.7.2.1c.9.4 1.6 1 2 1.9.3.5.9.8 1.4.8h1.5c.4 0 .7-.3.7-.7v-1.4c0-.5-.3-1-.8-1.2l-3.7-1.7zm-11 0l-1.3 1h-.5c-1 0-1.7.8-1.7 1.8 0 0 .7 1.2 3.7 1.5l2.4.7 1.9-.5v-2.2c0-.3-.2-.6-.5-.8l-4-1.5z" fill="#3C4043"/><path d="M778 211.8s-.6.6-1.5-.3c-1-1-.1-1-.1-1l2.4-4.6 1-4.4s-2-2.6-2.3-4.1c-.2-1.5 1.8-7.4 1.8-7.4l4.4 10.7c.5 1.3.4 2.8-.4 4a74.3 74.3 0 0 1-5.2 7.1z" fill="#DADCE0"/><path d="M780.6 201.6c-.2-.3-.4-.5-.8-.6l.1.1c-.2 1.5-.5 3-.9 4.4l-2.6 4.6s-1 0 0 .9c5.8-5.3 4.6-8.7 4.2-9.4z" fill="#F8F9FA"/><path d="M775.7 248l-1.2-.2c-.4-.1-.8-.4-1.2-.7l-1.2-1.3v-2c0-.1 0-.3.2-.4.3-.3.4-.7.2-1.1-.2-1-.9-2 0-9.7 0 0-1-4.2-1.7-13.5a67 67 0 0 0-4.2 8.5s0 1.1-.3 1.5a85 85 0 0 0-.7 18c-.1.3-.3.5-1.6.6-1.4.2-2.7-.6-3-2 0 0 0-4.9.3-6.5.1-3.4.1-6.9-.1-10.3A92.4 92.4 0 0 1 765 211c1.6-3.6 12.7-1.3 12.7-1.3.6 2.4.3 5-.8 7.2.2 3.3.3 6.6.1 10 0 0 1.4 6.6.7 11-.8 4.3-1.5 5-1.2 5.5.4.5 1.3.8.2 2.4-.3.5-.4 1-.3 1.7 0 .1 0 .3-.2.4h-.5z" fill="#174EA6"/><path d="M768 184.5v.2c-.8.5-1.4 1.3-1.7 2.1-.3 1.4-2.3 2.2-2.3 2.2l-2-1c.7-1 1.3-2.3 1.7-3.6.1-.3.4-.5.6-.5h1.3l.8-.8h.3l.2.4-.6 1.5.9-.7c.2-.1.5 0 .7.2z" fill="#795548"/><path d="M769.1 176c-.7.8-1.2 1.6-1.5 2.6 0 .2 0 .5.2.7.2.4-.4.7-.5 1l-.3 2.7c0 .5.3 1 .8 1.1l.6.2c.4.1.8.5.9 1l.2.7 5.5-.6s-1.1-.2-1-2.2c0-2 1.7-4-.2-5.9-1.8-1.7-4.7-1.2-4.7-1.2z" fill="#795548"/><path d="M768 179.7v.3l.5-.3.5-.1-.4-.6-.6.7z" fill="#8D6E63"/><path d="M770 176h-1a6 6 0 0 0-1.4 2.6c0 .3 0 .6.2.8.2.4-.4.8-.5 1l-.3 2.7c0 .4 0 .7.3.9.2-1 .3-1.8.3-2.8.2-.9.7-1.1 1.2-2.2l1.2-3z" fill="#8D6E63"/><path d="M768.1 177.8l.6-1.1c.1-.2 0-.3 0-.4l-.1-.3v-.3c1.6-1 3.7-1 5.1.3 3 2.5-.3 8-.3 8h-1.1c-1.1 0-2-.9-2.2-2v-.4a4 4 0 0 0-.8-1.8l-.3-.2c-.2 0-.3 0-.4.2l-.2.6-.4-.8.2-.8a1 1 0 0 1 0-1z" fill="#000"/><path d="M777.5 209.4s-4.8 2.5-12.7 1.3c-.3-.9-.4-1.8-.5-2.7 0-1 .8-4.9.6-6.4l-1.9-12.2 5-3.2a7.3 7.3 0 0 1 9 .8l2.6 2.5s1.7 4-1.7 9.7c0 0-1.3 1-.4 10.2z" fill="#DADCE0"/><path d="M767 183.3l-.2-.3h-.4l-.8.8h-1.3c-.3 0-.6.1-.7.4L762 187l.6-.1s1.2-2.4 1.7-2.5c.5-.1 1.5 0 1.8-.3l.9-.8z" fill="#93756B"/><path d="M764 188.5s0-1-2-1.5l-2.2 3.7c-1 1.6-3.8 4.4-2.4 6 1.1 1.4 4.9-2.6 4.9-2.6l1.7-5.6z" fill="#F8F9FA"/><path d="M768 186h-.3a5 5 0 0 0-4 2 31.3 31.3 0 0 1-4 5l-1.8 1.3a2 2 0 0 0-.6 2.6c.2.5.7.9 1.2 1a2 2 0 0 0 1.6-.2l5-3.4a6.4 6.4 0 0 0 2.9-5.3v-3z" fill="#DADCE0"/><path d="M771.9 185a8 8 0 0 0-4 1.1h-.2a5 5 0 0 0-4 2 29.6 29.6 0 0 1-4.1 4.5l-1.8 1.2c-.7.5-1 1.4-.7 2.2 0-.6.4-1.1 1-1.4l1.7-1.3c1.5-1.3 2.8-2.9 4-4.5a5 5 0 0 1 4-2 52 52 0 0 0 5.2-1.3l-1.1-.5zm11.8 15.6l-4-10.8-1.7-1.8a300 300 0 0 0 6 14c0-.5-.1-1-.3-1.4zm-18.7-4.4c-.2-.5-.6-1-1-1.2l.8 6.8c.2 1.6-.4 5.6-.4 6.6l.1 1.6c.6-2 1-4 1.4-6 .3-2-.1-6.2-1-7.8z" fill="#F8F9FA"/><path d="M768.6 179s-.5-.5-.3-.7l1.1-1.7c0-.2-.5-.5.6-1l2-.6a6 6 0 0 0-3.2.8.3.3 0 0 0 0 .6c.1 0 .1.3 0 .4l-.7 1.2c-.2.4-.1.8.1 1.1l-.2.9.6-1z" fill="#3C4043"/><path d="M812 236.5s-.2 5.7 16.4 6.2c6.5.2 12.5 5.6 18.5 6.4 14.4 2.1 38.3-3.7 20.1-15.7l-55 3z" fill="#E8EAED"/><path d="M849.3 234.3l-.1.9c0 .3-.3.5-.6.5H844v-.2c0-.7.4-1.3 1.1-1.5l3.6-1 .7 1.3z" fill="#3C4043"/><path d="M849.3 235.3l-2.4-2 3.1-7.3a2.6 2.6 0 0 1 4.4-.6c1.1 1.4 2 3 2.6 4.7h9.6v4.2s.8 2.6-4.4 2.5c-5.3 0-8 0-9-2.6a76.7 76.7 0 0 1-1.5-3.3l-2 4.3a.3.3 0 0 1-.4.1z" fill="#174EA6"/><path d="M857 230.2c-.6-1.8-1.5-3.4-2.6-4.8-.4-.5-1-.8-1.5-1 .4.7 1 1.3 1.4 1.8.7.7 1 4.7 2.3 5.6.6.4 1-.4 1.4-1.6h-1z" fill="#185ABC"/><path d="M848.7 226.4a1.3 1.3 0 0 0 1.9.6l6.3-3.9.9-1.8-.4-.9a1.8 1.8 0 0 0-3-.4 34.9 34.9 0 0 1-5.3 4.8c-.5.4-.6 1-.4 1.6z" fill="#1A73E8"/><path d="M855.7 219.4l6.5-1.3c1-.2 2 .2 2.4 1 1.1 1.8 2.6 5.8 2.4 14.3 0 0 .5 1.6-4.6 1.6s-5.3-2-5.5-4c-.3-1.8 1.2-6.3-1.2-11.6z" fill="#1A73E8"/><path d="M858.4 226.2a4.7 4.7 0 0 0-1.5-3.1c.6 3.7-.2 6.6 0 8l.1.8c1-.2 1.5-4 1.4-5.7zm6.3-7a2.3 2.3 0 0 0-2.5-1.1l-.9.2c0 .3.5 1.1 3.4 1zm-9 .2a2 2 0 0 0-1.4.6c-1.4 1.6-2.9 3-4.5 4.3l1 .1s4-3.7 4.9-4c.8-.3 1.2 0 1.4-1.3l-1.4.3z" fill="#D2E3FC" opacity=".5"/><path d="M855.3 217.2v-2.8c0-.6.4-1.2 1-1.4l2-.4 1.3 5.9-2.4.2a1.7 1.7 0 0 1-1.9-1.5z" fill="#FFE0B2"/><path d="M856.8 215l-1.8.5.2 1.2s.1.1.2 0h.1l-.1-.8.7-.2.7-.6z" fill="#3C4043"/><path d="M855.3 214l1.8 5.4c.6-.3 1.2-.3 1.8-.1.8.3 1.7.8 1.6 3.2.1.4.5.5.8.4a.8.8 0 0 0 1.1.7 4 4 0 0 0 2-2.3 4 4 0 0 0-1.2-2.4c-1-1-1.7-2.2-1.8-3.6-.1-1.8-1-3.3-2.5-3.3-1.2-.1-2.5.3-3.4 1.2-.2.2-.3.5-.2.8z" fill="#FABB05"/><path d="M845.7 215.6h.3c.3 0 .5.3.5.5v1.2c0 .3-.3.5-.6.5h-.3v-2.2z" fill="#D9943A"/><path d="M843.4 212.5a3 3 0 0 0-2.9 3.1l1 4.4h4l.8-4.4a3 3 0 0 0-3-3.1zm13 25.3v.7H853c-.6 0-1.1-.4-1.3-1-.4-1.4-.6-2.8-.7-4.3 0-2.5 2 .4 2 .4l.2 3.7 3.2.5z" fill="#D9943A"/><path d="M812.8 235.2h4l.3-2.2-1.4-.6a2 2 0 0 1-.9-.8l-.8-1.2v-.9c0-.4-.4-.7-.8-.7h-.3l-.1 2.4c0 .6 0 1.2.2 1.7l.4 1h-.8l.2 1.3z" fill="#3C4043"/><path d="M812 236.5h4l.6-2.6-1.4-.7-.8-.8-.6-1.5v-1a.8.8 0 0 0-.7-.8h-.2l-.4 2.8v1.9l.3 1h-.8v1.7z" fill="#202124"/><path d="M814.7 236.5l.5-1.5c.2-.6.8-1 1.4-1l19.7-1.4-.8 5-9.7-1c-.8-.2-1.7-.2-2.6-.2h-8.5z" fill="#174EA6"/><path d="M833.5 231s-2.2.2-4 0a27 27 0 0 1-3.7-.5h-1.3l-8 2c-.2 0-.4.3-.3.6l.5 2.2 6-.3a9 9 0 0 1 3.8.6c3.1 1.3 6.4 2 9.8 1.9 5.6-.4-2.8-6.4-2.8-6.4z" fill="#185ABC"/><path d="M852.7 233.8c.6-.2.9-.8.7-1.3l-1.3-5.6c-.5-1.8-1.2-3.6-2.1-5.2-.3-.6-.8-1-1.5-1.2l-1.7-.5v-.1a1 1 0 0 0-1-.7l-5.7.5v.8l-1.3.8c1.2 1.7 1.1 4-.2 5.6a10.2 10.2 0 0 1-5.8 3.7l2.7 7s7.4-.5 8.8-2c1.1-1 3.6-6 4.6-8.2l1.4 6a1.1 1.1 0 0 0 1.5.8l1-.4z" fill="#5F6368"/><path d="M850.8 223.4l-.9-1.7c-.3-.6-.8-1-1.4-1.2l-1.6-.5c.3.6.9 1 1.5 1.3.9.2 2.4 2 2.4 2.1z" fill="#80868B"/><path d="M834.3 239.6l2.4.5c.6 0 1.1 0 1.5-.3l1-.7a48 48 0 0 0 1.5-5.3c0-.6-2.3 1-2.3 1l-.9 3.7-3.2.4v.7z" fill="#D9943A"/><path d="M838.8 221.3c-.5.5-.8 1.1-.8 1.8l-.4 10.5a1.3 1.3 0 0 0 1.7 1.2l1-.3c.5-.2.9-.6.9-1.2 0-3.3 0-6.6-.5-10l-1.9-2z" fill="#5F6368"/><path d="M840.6 215.6h.5v2.2h-.3a.6.6 0 0 1-.5-.5V216a.4.4 0 0 1 .3-.4z" fill="#D9943A"/><path d="M846.3 215.2c-.2-1.6-.2-3-3-3-3 .1-2.8 1.5-3 3.2l.2.2c0 1.7 1.5 3 3.2 3 1 0 2-.6 2.4-1.7l.2-.9v-.8z" fill="#4E342E"/><path d="M840.5 214.6c.6-1 1.7-1.6 2.9-1.7 1-.2 2 .2 2.7 1-.2-1-.8-1.7-2.7-1.7-2.5.1-2.8 1.1-3 2.4z" fill="#83675D"/><path d="M843 220.6c-1 0-2 0-2.9-.2-1 .8-2 1.3-2.1 2.7v2l-.3 7.2c0 .9-.3 2 .7 2.5.9-1.7.8-4 .9-5.8.1-1.8-.6-4.2.3-6a25 25 0 0 0 3.3-1.6c.3-.2.8-.6.1-.8z" fill="#80868B"/><path d="M859 212c-1.3-.1-2.6.3-3.5 1.2-.2.2-.3.5-.2.8l.4-.3c1-.7 2-1 3.1-1 1.2-.2 2 1 2.5 2-.2-1.6-1-2.7-2.4-2.7zm3.1 5.6l.7 1.8 1.6 2a4 4 0 0 0-1.2-2.5 7 7 0 0 1-1-1.3z" fill="#FDE49D"/><path d="M900.7 222.3s30.8 14.7 35.3 12.6c4.5-2.2-.9-17.7-31.4-23.3l-2.6-.6-1.3 11.3z" fill="#E8EAED"/><path d="M899.7 217.4h-.2c-.6-.2-.7-.6-.2-3.5a106.5 106.5 0 0 1 3.2-13.4c.8-2.8 1.1-3.2 1.8-3 .6.2.7.6.2 3.5a106.5 106.5 0 0 1-3.2 13.4c-.8 2.4-1.1 3-1.6 3z" fill="#202124"/><path d="M904.6 199.7h-.1a.4.4 0 0 1-.3-.5l1.6-6a.4.4 0 0 1 .8.3l-1.6 5.9c0 .2-.2.3-.4.3z" fill="#BDC1C6"/><path d="M904.1 192c.7.4 1.5.4 2.2 0 1-.5 1.5.4 1.4 1.1 0 .8-1.9 1.2-3.4.7-1.5-.6-.2-1.7-.2-1.7z" fill="#202124"/><path d="M905 192.6h1.6s.8 7.8.7 9.9c-.1.6 0 1.3.3 2v4.4c.1 1.8.7 5 .5 5.2-.4.2-.7.7-.7 1.1.2 1 .2 2 .1 3l-.2.5-.2 1.4v.1h2.6l.3-.8-.2-2.3-.2-.8.4-.3v-.8c0-.4 0-.9-.4-1 .4-2 .7-3.9.8-5.8.3-4-.7-6.2-.4-7.9a81 81 0 0 0 1.3-8.5c0-1.3 0-3.3-5-4-5-.6-6 1-5.8 3.3.3 2.3 1 4.3.6 5.5l-1.9 4.5c-.3 1-1.1 6.5-1.1 6.5l-.4.5v1.7l-1 1.3-.3 1v.4l2.8.4.7-3.2.2-.3c.2-.4.2-.8.1-1.2l-.2-.6 2.2-5.7c.4-1.2.2-2 .8-2.8.6-.8 1.2-1.2 2-6.7z" fill="#3C4043"/><path d="M902.6 198a49 49 0 0 0 1.7-6.6l-3.8-.3v.2c.2 2.2 1 4.3.6 5.5l-1.9 4.5c-.4 1-1.1 6.5-1.1 6.5l-.4.5v1.7l-1 1.3-.3 1 1.7-.1s.2 0 1.1-4.6c.7-3.3 1.9-6.6 3.4-9.6z" fill="#5F6368"/><path d="M915 183.7l-3.1-9-4.8-2.2-2.7-.4-3.3 1.1s-.6.4-.8 2c-.2 1.5-1.2 6.9-1.4 7.2-.1.2-1 .8.4 4.1l1.6-.4a35 35 0 0 0-.6 5.7h5.4c1.4.1 4.7 2.9 5.3 2.8.6 0 1.4-1.2.7-4l-1-4.2.6-5.2 1.9 3.6.5 2.1.6-.3h1l-.3-3z" fill="#4285F4"/><path d="M911.8 174.6l-1.6-.7 1 1.4 1 .6-.4-1.3zm-5.2-2.1l-.3-.1-2-.3-3.2 1.1s-.6.4-.8 2c-.2 1.5-1.2 6.9-1.4 7.2-.1.2-1 .8.4 4.1l1.6-.8c0-.8-.1-1.6-.5-2.3l-.7-.6s1.4-8.1 1.8-8.5c.5.5 5.1-1.8 5.1-1.8z" fill="#D2E3FC" opacity=".5"/><path d="M899.5 187.8l-.6.8a1 1 0 0 0-.1.7l.2 1.5a.3.3 0 0 0 .4.3 2 2 0 0 0 1.2-1.2v-1.2l.6.7a.3.3 0 0 0 .4.1l.3-.3-.8-1.3-.2-.6v-1.5a.8.8 0 0 0-1.2-.3c-.7.6-.4 1-.4 1s.4 1 .2 1.3zm4.9-15.7l-1.1.4c0 2 .5 5.6 3 5.8 2.4.2 2.7-2.8 2.7-5l-2-.8-2.6-.4z" fill="#FFB74D"/><path d="M907.4 174.8v-2.4l-2.5.1-.9.7-.7-2.5s.7-3 1.8-3.1c1-.2 1.8-.2 2.7-.2l1.2 3s-.2 3.5-1.6 4.4z" fill="#202124"/><path d="M904.2 168.6v2.8c0 .5.2 1 .5 1.3l.7.9c.2.2.5.3.8.3.3 0 .6-.1.8-.4l.6-.8c.3-.4.5-.8.5-1.3v-3.6a2 2 0 0 0-1.6-1.1 2 2 0 0 0-2.3 2z" fill="#FFCC80"/><path d="M904.2 174.6l-1.5.3a.7.7 0 0 1-.8-.6c-.2-1-.3-3.5 2-6.5.8-1.1 1.3-1.9 2.6-1.8 2.2.1 2.2 2.4 2.6 3 .5.7 2 3.6 0 12.6 0 0-2.3.8-2.5-2.4-.2-3.2 1.2-6.3 1.5-7.9.3-1.6 0-3.4-1.7-3.2 0 0-1-.3-1.2.1-.2.4.4 1.4-.1 2l-1 .7c-.1 1 0 2.1.5 3.1a.5.5 0 0 1-.4.6z" fill="#3C4043"/><path d="M905.3 201.4h-.1a.4.4 0 0 1-.3-.5l2-8.4a.4.4 0 1 1 .9.3l-2 8.3c-.1.2-.3.3-.5.3z" fill="#DADCE0"/><path d="M909.1 193.3h-.9l-1.8-.4c-.7-.2-1.4-.5-2-1l-1.5-1.4a4 4 0 0 0-1.9-.8l-1-.2a.4.4 0 0 1 .1-.8l1 .1c.9.1 1.7.5 2.4 1l1.5 1.4c.5.4 1 .7 1.6.8l1.8.4c.7.1 1.3 0 2-.2l.8-.3c.7-.2 1.3-.3 2-.2l2.2.2a.4.4 0 0 1 0 .9l-2.3-.3c-.5 0-1 0-1.6.2l-.9.4-1.5.2z" fill="#DADCE0"/><path d="M914.4 191.1l.3.6v.4l-.9 1s-.3 1.2.7 1.5l.7-.4c.3-.2.6-.5.7-.9l.3-.5v-.4a6 6 0 0 1-.6-2.4l-.3-3.4a3 3 0 0 0-1 0 1 1 0 0 0-.6.3l.6 2.8v1.4z" fill="#FFB74D"/><path d="M900.3 214.2l-4-.8a.4.4 0 1 1 .2-.8l3.9.8a.4.4 0 0 1 0 .8zm5.2-5.2l1.6.4a.8.8 0 0 1 .6 1.1l-.1.3c-.2.4-.6.6-1 .5l-1.6-.4a.8.8 0 0 1-.6-1.1l.1-.3c.2-.4.6-.6 1-.5z" fill="#BDC1C6"/><path d="M901 222.3h-.3c-.7-.1-.8-.6-.3-3.9a124.4 124.4 0 0 1 3.6-14.7c1-3.1 1.3-3.5 2-3.3.7.1.8.6.2 3.8a124.4 124.4 0 0 1-3.6 14.7c-.8 2.8-1.2 3.4-1.7 3.4z" fill="#202124"/><path d="M912.4 183.2l.8 1.6.5 2 .6-.2h.3l-.2-2c0-.4-1.3-1-2-1.4z" fill="#D2E3FC" opacity=".5"/><path d="M914.6 186.6h-.3a1 1 0 0 0-.6.3c.3.9.5 1.8.6 2.8v1.4l.4.6v.4l-1 1c0 .4 0 .8.2 1.2.5-.3 1-.7 1-.9v-2.3l-.3-4.6z" fill="#FFCC80"/><path d="M906.5 166c-1.3 0-1.8.7-2.6 1.8-2.2 2.9-2.2 5.3-2 6.4 0 .2.2.2.3.2 1-.4.2-2.7.4-3.7a12 12 0 0 1 3.4-4.2c.2 0 .4-.3.5-.5z" fill="#80868B"/></g></svg>