<svg id="Capa_1" enable-background="new 0 0 512 512" height="512" viewBox="0 0 512 512" width="512" xmlns="http://www.w3.org/2000/svg" xmlns:xlink="http://www.w3.org/1999/xlink"><linearGradient id="SVGID_1_" gradientUnits="userSpaceOnUse" x1="256" x2="256" y1="512" y2="0"><stop offset="0" stop-color="#a93aff"/><stop offset="1" stop-color="#ff81ff"/></linearGradient><linearGradient id="SVGID_2_" gradientUnits="userSpaceOnUse" x1="256" x2="256" y1="430.728" y2="96.717"><stop offset="0" stop-color="#ffbef9"/><stop offset="1" stop-color="#fff1ff"/></linearGradient><g><path d="m256 512c-140.596 0-256-115.39-256-256s115.404-256 256-256 256 115.39 256 256-115.404 256-256 256z" fill="url(#SVGID_1_)"/><g><g><path d="m197.67 401.914c-17.842-7.544-33.896-18.384-47.695-32.168-13.77-13.813-24.609-29.868-32.197-47.725-3.252-7.632-12.129-11.162-19.658-7.954-7.617 3.252-11.191 12.056-7.939 19.673 9.082 21.416 22.061 40.649 38.584 57.202 16.553 16.553 35.801 29.546 57.246 38.599 7.635 3.23 16.429-.362 19.658-7.969 3.222-7.632-.353-16.435-7.999-19.658zm224.15-208.213c-9.082-21.416-22.061-40.649-38.584-57.202-16.553-16.553-35.801-29.546-57.246-38.599-7.529-3.208-16.406.322-19.658 7.969-3.223 7.632.352 16.436 7.998 19.658 17.842 7.544 33.896 18.384 47.695 32.168 13.77 13.813 24.609 29.868 32.197 47.725 3.274 7.693 12.105 11.15 19.658 7.954 7.618-3.252 11.192-12.056 7.94-19.673zm-165.82-34.98c-57.898 0-105 47.1-105 105s47.102 105 105 105 105-47.1 105-105-47.102-105-105-105zm0 150c-24.902 0-45-20.101-45-45 0-24.9 20.098-45 45-45s45 20.1 45 45c0 24.898-20.098 45-45 45z" fill="url(#SVGID_2_)"/></g></g></g></svg>